<?xml version="1.0" encoding="UTF-8" standalone="no"?>
<!DOCTYPE svg PUBLIC "-//W3C//DTD SVG 1.1//EN"
 "http://www.w3.org/Graphics/SVG/1.1/DTD/svg11.dtd">
<!-- Generated by graphviz version 2.43.0 (0)
 -->
<!-- Title: %3 Pages: 1 -->
<svg width="501pt" height="288pt"
 viewBox="0.00 0.00 500.93 288.00" xmlns="http://www.w3.org/2000/svg" xmlns:xlink="http://www.w3.org/1999/xlink">
<g id="graph0" class="graph" transform="scale(0.51 0.51) rotate(0) translate(4 558.29)">
<title>%3</title>
<polygon fill="white" stroke="transparent" points="-4,4 -4,-558.29 974,-558.29 974,4 -4,4"/>
<g id="clust1" class="cluster">
<title>cluster_Air</title>
<g id="a_clust1"><a xlink:href="#compartment-Air" xlink:title="Air&#10;[PBPKO:00448]">
<path fill="lightblue" stroke="black" d="M378,-418.43C378,-418.43 484,-418.43 484,-418.43 490,-418.43 496,-424.43 496,-430.43 496,-430.43 496,-531.42 496,-531.42 496,-537.42 490,-543.42 484,-543.42 484,-543.42 378,-543.42 378,-543.42 372,-543.42 366,-537.42 366,-531.42 366,-531.42 366,-430.43 366,-430.43 366,-424.43 372,-418.43 378,-418.43"/>
<text text-anchor="middle" x="431" y="-528.22" font-family="Arial" font-size="14.00">Air</text>
<text text-anchor="middle" x="431" y="-513.22" font-family="Arial" font-size="14.00">[PBPKO:00448]</text>
</a>
</g>
</g>
<g id="clust2" class="cluster">
<title>cluster_Urine</title>
<g id="a_clust2"><a xlink:href="#compartment-Urine" xlink:title="Urine&#10;[PBPKO:00556]">
<path fill="lightblue" stroke="black" d="M309,-146.72C309,-146.72 415,-146.72 415,-146.72 421,-146.72 427,-152.72 427,-158.72 427,-158.72 427,-259.71 427,-259.71 427,-265.71 421,-271.71 415,-271.71 415,-271.71 309,-271.71 309,-271.71 303,-271.71 297,-265.71 297,-259.71 297,-259.71 297,-158.72 297,-158.72 297,-152.72 303,-146.72 309,-146.72"/>
<text text-anchor="middle" x="362" y="-256.51" font-family="Arial" font-size="14.00">Urine</text>
<text text-anchor="middle" x="362" y="-241.51" font-family="Arial" font-size="14.00">[PBPKO:00556]</text>
</a>
</g>
</g>
<g id="clust3" class="cluster">
<title>cluster_Fat</title>
<g id="a_clust3"><a xlink:href="#compartment-Fat" xlink:title="Fat&#10;[PBPKO:00460]">
<path fill="lightblue" stroke="black" d="M447,-146.72C447,-146.72 553,-146.72 553,-146.72 559,-146.72 565,-152.72 565,-158.72 565,-158.72 565,-259.71 565,-259.71 565,-265.71 559,-271.71 553,-271.71 553,-271.71 447,-271.71 447,-271.71 441,-271.71 435,-265.71 435,-259.71 435,-259.71 435,-158.72 435,-158.72 435,-152.72 441,-146.72 447,-146.72"/>
<text text-anchor="middle" x="500" y="-256.51" font-family="Arial" font-size="14.00">Fat</text>
<text text-anchor="middle" x="500" y="-241.51" font-family="Arial" font-size="14.00">[PBPKO:00460]</text>
</a>
</g>
</g>
<g id="clust4" class="cluster">
<title>cluster_Rich</title>
<g id="a_clust4"><a xlink:href="#compartment-Rich" xlink:title="Rich&#10;[PBPKO:00453]">
<path fill="lightblue" stroke="black" d="M585,-146.72C585,-146.72 691,-146.72 691,-146.72 697,-146.72 703,-152.72 703,-158.72 703,-158.72 703,-259.71 703,-259.71 703,-265.71 697,-271.71 691,-271.71 691,-271.71 585,-271.71 585,-271.71 579,-271.71 573,-265.71 573,-259.71 573,-259.71 573,-158.72 573,-158.72 573,-152.72 579,-146.72 585,-146.72"/>
<text text-anchor="middle" x="638" y="-256.51" font-family="Arial" font-size="14.00">Rich</text>
<text text-anchor="middle" x="638" y="-241.51" font-family="Arial" font-size="14.00">[PBPKO:00453]</text>
</a>
</g>
</g>
<g id="clust5" class="cluster">
<title>cluster_Liver</title>
<g id="a_clust5"><a xlink:href="#compartment-Liver" xlink:title="Liver&#10;[PBPKO:00558]">
<path fill="lightblue" stroke="black" d="M20,-10.87C20,-10.87 126,-10.87 126,-10.87 132,-10.87 138,-16.87 138,-22.87 138,-22.87 138,-259.71 138,-259.71 138,-265.71 132,-271.71 126,-271.71 126,-271.71 20,-271.71 20,-271.71 14,-271.71 8,-265.71 8,-259.71 8,-259.71 8,-22.87 8,-22.87 8,-16.87 14,-10.87 20,-10.87"/>
<text text-anchor="middle" x="73" y="-256.51" font-family="Arial" font-size="14.00">Liver</text>
<text text-anchor="middle" x="73" y="-241.51" font-family="Arial" font-size="14.00">[PBPKO:00558]</text>
</a>
</g>
</g>
<g id="clust6" class="cluster">
<title>cluster_Art</title>
<g id="a_clust6"><a xlink:href="#compartment-Art" xlink:title="Art&#10;[PBPKO:00552]">
<path fill="lightblue" stroke="black" d="M378,-282.58C378,-282.58 484,-282.58 484,-282.58 490,-282.58 496,-288.58 496,-294.58 496,-294.58 496,-395.56 496,-395.56 496,-401.56 490,-407.56 484,-407.56 484,-407.56 378,-407.56 378,-407.56 372,-407.56 366,-401.56 366,-395.56 366,-395.56 366,-294.58 366,-294.58 366,-288.58 372,-282.58 378,-282.58"/>
<text text-anchor="middle" x="431" y="-392.36" font-family="Arial" font-size="14.00">Art</text>
<text text-anchor="middle" x="431" y="-377.36" font-family="Arial" font-size="14.00">[PBPKO:00552]</text>
</a>
</g>
</g>
<g id="clust7" class="cluster">
<title>cluster_Ven</title>
<g id="a_clust7"><a xlink:href="#compartment-Ven" xlink:title="Ven&#10;[PBPKO:00561]">
<path fill="lightblue" stroke="black" d="M447,-10.87C447,-10.87 553,-10.87 553,-10.87 559,-10.87 565,-16.87 565,-22.87 565,-22.87 565,-123.85 565,-123.85 565,-129.85 559,-135.85 553,-135.85 553,-135.85 447,-135.85 447,-135.85 441,-135.85 435,-129.85 435,-123.85 435,-123.85 435,-22.87 435,-22.87 435,-16.87 441,-10.87 447,-10.87"/>
<text text-anchor="middle" x="500" y="-120.65" font-family="Arial" font-size="14.00">Ven</text>
<text text-anchor="middle" x="500" y="-105.65" font-family="Arial" font-size="14.00">[PBPKO:00561]</text>
</a>
</g>
</g>
<g id="clust8" class="cluster">
<title>cluster_Skin_e</title>
<g id="a_clust8"><a xlink:href="#compartment-Skin_e" xlink:title="Skin_e&#10;[PBPKO:00456]">
<path fill="lightblue" stroke="black" d="M158,-146.72C158,-146.72 247,-146.72 247,-146.72 253,-146.72 259,-152.72 259,-158.72 259,-158.72 259,-259.71 259,-259.71 259,-265.71 253,-271.71 247,-271.71 247,-271.71 158,-271.71 158,-271.71 152,-271.71 146,-265.71 146,-259.71 146,-259.71 146,-158.72 146,-158.72 146,-152.72 152,-146.72 158,-146.72"/>
<text text-anchor="middle" x="202.5" y="-256.51" font-family="Arial" font-size="14.00">Skin_e</text>
<text text-anchor="middle" x="202.5" y="-241.51" font-family="Arial" font-size="14.00">[PBPKO:00456]</text>
</a>
</g>
</g>
<g id="clust9" class="cluster">
<title>cluster_Skin_u</title>
<g id="a_clust9"><a xlink:href="#compartment-Skin_u" xlink:title="Skin_u&#10;[PBPKO:00455]">
<path fill="lightblue" stroke="black" d="M861,-146.72C861,-146.72 950,-146.72 950,-146.72 956,-146.72 962,-152.72 962,-158.72 962,-158.72 962,-259.71 962,-259.71 962,-265.71 956,-271.71 950,-271.71 950,-271.71 861,-271.71 861,-271.71 855,-271.71 849,-265.71 849,-259.71 849,-259.71 849,-158.72 849,-158.72 849,-152.72 855,-146.72 861,-146.72"/>
<text text-anchor="middle" x="905.5" y="-256.51" font-family="Arial" font-size="14.00">Skin_u</text>
<text text-anchor="middle" x="905.5" y="-241.51" font-family="Arial" font-size="14.00">[PBPKO:00455]</text>
</a>
</g>
</g>
<g id="clust10" class="cluster">
<title>cluster_Skin_sc_e</title>
<g id="a_clust10"><a xlink:href="#compartment-Skin_sc_e" xlink:title="Skin_sc_e&#10;[PBPKO:00458]">
<path fill="lightblue" stroke="black" d="M170,-10.87C170,-10.87 259,-10.87 259,-10.87 265,-10.87 271,-16.87 271,-22.87 271,-22.87 271,-123.85 271,-123.85 271,-129.85 265,-135.85 259,-135.85 259,-135.85 170,-135.85 170,-135.85 164,-135.85 158,-129.85 158,-123.85 158,-123.85 158,-22.87 158,-22.87 158,-16.87 164,-10.87 170,-10.87"/>
<text text-anchor="middle" x="214.5" y="-120.65" font-family="Arial" font-size="14.00">Skin_sc_e</text>
<text text-anchor="middle" x="214.5" y="-105.65" font-family="Arial" font-size="14.00">[PBPKO:00458]</text>
</a>
</g>
</g>
<g id="clust11" class="cluster">
<title>cluster_Skin_sc_u</title>
<g id="a_clust11"><a xlink:href="#compartment-Skin_sc_u" xlink:title="Skin_sc_u&#10;[PBPKO:00457]">
<path fill="lightblue" stroke="black" d="M848,-282.58C848,-282.58 937,-282.58 937,-282.58 943,-282.58 949,-288.58 949,-294.58 949,-294.58 949,-395.56 949,-395.56 949,-401.56 943,-407.56 937,-407.56 937,-407.56 848,-407.56 848,-407.56 842,-407.56 836,-401.56 836,-395.56 836,-395.56 836,-294.58 836,-294.58 836,-288.58 842,-282.58 848,-282.58"/>
<text text-anchor="middle" x="892.5" y="-392.36" font-family="Arial" font-size="14.00">Skin_sc_u</text>
<text text-anchor="middle" x="892.5" y="-377.36" font-family="Arial" font-size="14.00">[PBPKO:00457]</text>
</a>
</g>
</g>
<g id="clust12" class="cluster">
<title>cluster_Poor</title>
<g id="a_clust12"><a xlink:href="#compartment-Poor" xlink:title="Poor&#10;[PBPKO:00454]">
<path fill="lightblue" stroke="black" d="M723,-146.72C723,-146.72 829,-146.72 829,-146.72 835,-146.72 841,-152.72 841,-158.72 841,-158.72 841,-259.71 841,-259.71 841,-265.71 835,-271.71 829,-271.71 829,-271.71 723,-271.71 723,-271.71 717,-271.71 711,-265.71 711,-259.71 711,-259.71 711,-158.72 711,-158.72 711,-152.72 717,-146.72 723,-146.72"/>
<text text-anchor="middle" x="776" y="-256.51" font-family="Arial" font-size="14.00">Poor</text>
<text text-anchor="middle" x="776" y="-241.51" font-family="Arial" font-size="14.00">[PBPKO:00454]</text>
</a>
</g>
</g>
<g id="clust13" class="cluster">
<title>cluster_Gut</title>
<g id="a_clust13"><a xlink:href="#compartment-Gut" xlink:title="Gut&#10;[PBPKO:00477]">
<path fill="lightblue" stroke="black" d="M20,-282.58C20,-282.58 126,-282.58 126,-282.58 132,-282.58 138,-288.58 138,-294.58 138,-294.58 138,-395.56 138,-395.56 138,-401.56 132,-407.56 126,-407.56 126,-407.56 20,-407.56 20,-407.56 14,-407.56 8,-401.56 8,-395.56 8,-395.56 8,-294.58 8,-294.58 8,-288.58 14,-282.58 20,-282.58"/>
<text text-anchor="middle" x="73" y="-392.36" font-family="Arial" font-size="14.00">Gut</text>
<text text-anchor="middle" x="73" y="-377.36" font-family="Arial" font-size="14.00">[PBPKO:00477]</text>
</a>
</g>
</g>
<!-- QAir -->
<g id="node1" class="node">
<title>QAir</title>
<g id="a_node1"><a xlink:href="#species-QAir" xlink:title="QAir&#10;[PBPKO:00633]">
<path fill="gold" stroke="black" d="M475.5,-473.87C475.5,-473.87 386.5,-473.87 386.5,-473.87 380.5,-473.87 374.5,-467.87 374.5,-461.87 374.5,-461.87 374.5,-447.87 374.5,-447.87 374.5,-441.87 380.5,-435.87 386.5,-435.87 386.5,-435.87 475.5,-435.87 475.5,-435.87 481.5,-435.87 487.5,-441.87 487.5,-447.87 487.5,-447.87 487.5,-461.87 487.5,-461.87 487.5,-467.87 481.5,-473.87 475.5,-473.87"/>
<text text-anchor="middle" x="431" y="-458.67" font-family="Arial" font-size="14.00">QAir</text>
<text text-anchor="middle" x="431" y="-443.67" font-family="Arial" font-size="14.00">[PBPKO:00633]</text>
</a>
</g>
</g>
<!-- QArt -->
<g id="node7" class="node">
<title>QArt</title>
<g id="a_node7"><a xlink:href="#species-QArt" xlink:title="QArt&#10;[PBPKO:00631]">
<path fill="gold" stroke="black" d="M475.5,-337.87C475.5,-337.87 386.5,-337.87 386.5,-337.87 380.5,-337.87 374.5,-331.87 374.5,-325.87 374.5,-325.87 374.5,-311.87 374.5,-311.87 374.5,-305.87 380.5,-299.87 386.5,-299.87 386.5,-299.87 475.5,-299.87 475.5,-299.87 481.5,-299.87 487.5,-305.87 487.5,-311.87 487.5,-311.87 487.5,-325.87 487.5,-325.87 487.5,-331.87 481.5,-337.87 475.5,-337.87"/>
<text text-anchor="middle" x="431" y="-322.67" font-family="Arial" font-size="14.00">QArt</text>
<text text-anchor="middle" x="431" y="-307.67" font-family="Arial" font-size="14.00">[PBPKO:00631]</text>
</a>
</g>
</g>
<!-- QAir&#45;&gt;QArt -->
<g id="edge1" class="edge">
<title>QAir&#45;&gt;QArt</title>
<path fill="none" stroke="black" d="M435.79,-435.8C438.08,-413.32 438.36,-374.69 436.63,-348.24"/>
<polygon fill="black" stroke="black" points="440.11,-347.76 435.8,-338.08 433.13,-348.33 440.11,-347.76"/>
</g>
<!-- QExcret -->
<g id="node2" class="node">
<title>QExcret</title>
<g id="a_node2"><a xlink:href="#species-QExcret" xlink:title="QExcret&#10;[PBPKO:00274]">
<path fill="gold" stroke="black" d="M406.5,-202.87C406.5,-202.87 317.5,-202.87 317.5,-202.87 311.5,-202.87 305.5,-196.87 305.5,-190.87 305.5,-190.87 305.5,-176.87 305.5,-176.87 305.5,-170.87 311.5,-164.87 317.5,-164.87 317.5,-164.87 406.5,-164.87 406.5,-164.87 412.5,-164.87 418.5,-170.87 418.5,-176.87 418.5,-176.87 418.5,-190.87 418.5,-190.87 418.5,-196.87 412.5,-202.87 406.5,-202.87"/>
<text text-anchor="middle" x="362" y="-187.67" font-family="Arial" font-size="14.00">QExcret</text>
<text text-anchor="middle" x="362" y="-172.67" font-family="Arial" font-size="14.00">[PBPKO:00274]</text>
</a>
</g>
</g>
<!-- QFat -->
<g id="node3" class="node">
<title>QFat</title>
<g id="a_node3"><a xlink:href="#species-QFat" xlink:title="QFat&#10;[PBPKO:00550]">
<path fill="gold" stroke="black" d="M544.5,-202.87C544.5,-202.87 455.5,-202.87 455.5,-202.87 449.5,-202.87 443.5,-196.87 443.5,-190.87 443.5,-190.87 443.5,-176.87 443.5,-176.87 443.5,-170.87 449.5,-164.87 455.5,-164.87 455.5,-164.87 544.5,-164.87 544.5,-164.87 550.5,-164.87 556.5,-170.87 556.5,-176.87 556.5,-176.87 556.5,-190.87 556.5,-190.87 556.5,-196.87 550.5,-202.87 544.5,-202.87"/>
<text text-anchor="middle" x="500" y="-187.67" font-family="Arial" font-size="14.00">QFat</text>
<text text-anchor="middle" x="500" y="-172.67" font-family="Arial" font-size="14.00">[PBPKO:00550]</text>
</a>
</g>
</g>
<!-- QVen -->
<g id="node8" class="node">
<title>QVen</title>
<g id="a_node8"><a xlink:href="#species-QVen" xlink:title="QVen&#10;[PBPKO:00632]">
<path fill="gold" stroke="black" d="M544.5,-66.87C544.5,-66.87 455.5,-66.87 455.5,-66.87 449.5,-66.87 443.5,-60.87 443.5,-54.87 443.5,-54.87 443.5,-40.87 443.5,-40.87 443.5,-34.87 449.5,-28.87 455.5,-28.87 455.5,-28.87 544.5,-28.87 544.5,-28.87 550.5,-28.87 556.5,-34.87 556.5,-40.87 556.5,-40.87 556.5,-54.87 556.5,-54.87 556.5,-60.87 550.5,-66.87 544.5,-66.87"/>
<text text-anchor="middle" x="500" y="-51.67" font-family="Arial" font-size="14.00">QVen</text>
<text text-anchor="middle" x="500" y="-36.67" font-family="Arial" font-size="14.00">[PBPKO:00632]</text>
</a>
</g>
</g>
<!-- QFat&#45;&gt;QVen -->
<g id="edge2" class="edge">
<title>QFat&#45;&gt;QVen</title>
<path fill="none" stroke="black" d="M500,-164.8C500,-142.32 500,-103.69 500,-77.24"/>
<polygon fill="black" stroke="black" points="503.5,-77.08 500,-67.08 496.5,-77.08 503.5,-77.08"/>
</g>
<!-- QRich -->
<g id="node4" class="node">
<title>QRich</title>
<g id="a_node4"><a xlink:href="#species-QRich" xlink:title="QRich&#10;[PBPKO:00629]">
<path fill="gold" stroke="black" d="M682.5,-202.87C682.5,-202.87 593.5,-202.87 593.5,-202.87 587.5,-202.87 581.5,-196.87 581.5,-190.87 581.5,-190.87 581.5,-176.87 581.5,-176.87 581.5,-170.87 587.5,-164.87 593.5,-164.87 593.5,-164.87 682.5,-164.87 682.5,-164.87 688.5,-164.87 694.5,-170.87 694.5,-176.87 694.5,-176.87 694.5,-190.87 694.5,-190.87 694.5,-196.87 688.5,-202.87 682.5,-202.87"/>
<text text-anchor="middle" x="638" y="-187.67" font-family="Arial" font-size="14.00">QRich</text>
<text text-anchor="middle" x="638" y="-172.67" font-family="Arial" font-size="14.00">[PBPKO:00629]</text>
</a>
</g>
</g>
<!-- QRich&#45;&gt;QVen -->
<g id="edge3" class="edge">
<title>QRich&#45;&gt;QVen</title>
<path fill="none" stroke="black" d="M619.39,-164.8C595.31,-141.42 553.24,-100.57 526.02,-74.13"/>
<polygon fill="black" stroke="black" points="528.37,-71.54 518.76,-67.08 523.49,-76.56 528.37,-71.54"/>
</g>
<!-- QLiver -->
<g id="node5" class="node">
<title>QLiver</title>
<g id="a_node5"><a xlink:href="#species-QLiver" xlink:title="QLiver&#10;[PBPKO:00497]">
<path fill="gold" stroke="black" d="M117.5,-202.87C117.5,-202.87 28.5,-202.87 28.5,-202.87 22.5,-202.87 16.5,-196.87 16.5,-190.87 16.5,-190.87 16.5,-176.87 16.5,-176.87 16.5,-170.87 22.5,-164.87 28.5,-164.87 28.5,-164.87 117.5,-164.87 117.5,-164.87 123.5,-164.87 129.5,-170.87 129.5,-176.87 129.5,-176.87 129.5,-190.87 129.5,-190.87 129.5,-196.87 123.5,-202.87 117.5,-202.87"/>
<text text-anchor="middle" x="73" y="-187.67" font-family="Arial" font-size="14.00">QLiver</text>
<text text-anchor="middle" x="73" y="-172.67" font-family="Arial" font-size="14.00">[PBPKO:00497]</text>
</a>
</g>
</g>
<!-- QMetab -->
<g id="node6" class="node">
<title>QMetab</title>
<g id="a_node6"><a xlink:href="#species-QMetab" xlink:title="QMetab&#10;[PBPKO:00058]">
<path fill="gold" stroke="black" d="M117.5,-66.87C117.5,-66.87 28.5,-66.87 28.5,-66.87 22.5,-66.87 16.5,-60.87 16.5,-54.87 16.5,-54.87 16.5,-40.87 16.5,-40.87 16.5,-34.87 22.5,-28.87 28.5,-28.87 28.5,-28.87 117.5,-28.87 117.5,-28.87 123.5,-28.87 129.5,-34.87 129.5,-40.87 129.5,-40.87 129.5,-54.87 129.5,-54.87 129.5,-60.87 123.5,-66.87 117.5,-66.87"/>
<text text-anchor="middle" x="73" y="-51.67" font-family="Arial" font-size="14.00">QMetab</text>
<text text-anchor="middle" x="73" y="-36.67" font-family="Arial" font-size="14.00">[PBPKO:00058]</text>
</a>
</g>
</g>
<!-- QLiver&#45;&gt;QMetab -->
<g id="edge4" class="edge">
<title>QLiver&#45;&gt;QMetab</title>
<path fill="none" stroke="black" d="M73,-164.8C73,-142.32 73,-103.69 73,-77.24"/>
<polygon fill="black" stroke="black" points="76.5,-77.08 73,-67.08 69.5,-77.08 76.5,-77.08"/>
</g>
<!-- QLiver&#45;&gt;QVen -->
<g id="edge5" class="edge">
<title>QLiver&#45;&gt;QVen</title>
<path fill="none" stroke="black" d="M119.61,-164.82C127.07,-162.07 134.73,-159.33 142,-156.87 242.71,-122.75 361.11,-88.08 433.32,-67.53"/>
<polygon fill="black" stroke="black" points="434.54,-70.82 443.2,-64.72 432.63,-64.09 434.54,-70.82"/>
</g>
<!-- QArt&#45;&gt;QAir -->
<g id="edge6" class="edge">
<title>QArt&#45;&gt;QAir</title>
<path fill="none" stroke="black" d="M426.2,-338.08C423.91,-360.63 423.64,-399.27 425.38,-425.66"/>
<polygon fill="black" stroke="black" points="421.9,-426.12 426.21,-435.8 428.88,-425.54 421.9,-426.12"/>
</g>
<!-- QArt&#45;&gt;QExcret -->
<g id="edge7" class="edge">
<title>QArt&#45;&gt;QExcret</title>
<path fill="none" stroke="black" d="M421.55,-299.65C409.85,-277.1 389.8,-238.46 376.23,-212.31"/>
<polygon fill="black" stroke="black" points="379.27,-210.55 371.56,-203.29 373.06,-213.78 379.27,-210.55"/>
</g>
<!-- QArt&#45;&gt;QFat -->
<g id="edge8" class="edge">
<title>QArt&#45;&gt;QFat</title>
<path fill="none" stroke="black" d="M440.45,-299.65C452.15,-277.1 472.2,-238.46 485.77,-212.31"/>
<polygon fill="black" stroke="black" points="488.94,-213.78 490.44,-203.29 482.73,-210.55 488.94,-213.78"/>
</g>
<!-- QArt&#45;&gt;QRich -->
<g id="edge9" class="edge">
<title>QArt&#45;&gt;QRich</title>
<path fill="none" stroke="black" d="M474.73,-299.86C502.79,-287.39 539.38,-269.38 569,-248.87 585.13,-237.7 601.31,-222.93 613.94,-210.39"/>
<polygon fill="black" stroke="black" points="616.78,-212.5 621.32,-202.92 611.8,-207.58 616.78,-212.5"/>
</g>
<!-- QArt&#45;&gt;QLiver -->
<g id="edge10" class="edge">
<title>QArt&#45;&gt;QLiver</title>
<path fill="none" stroke="black" d="M374.48,-312.96C313.93,-305.81 216.49,-288.7 142,-248.87 124.05,-239.27 107.24,-223.86 94.7,-210.57"/>
<polygon fill="black" stroke="black" points="97.16,-208.07 87.83,-203.05 91.99,-212.79 97.16,-208.07"/>
</g>
<!-- QSkin_e -->
<g id="node9" class="node">
<title>QSkin_e</title>
<g id="a_node9"><a xlink:href="#species-QSkin_e" xlink:title="QSkin_e&#10;[&#45;]">
<path fill="gold" stroke="black" d="M236.5,-202.87C236.5,-202.87 191.5,-202.87 191.5,-202.87 185.5,-202.87 179.5,-196.87 179.5,-190.87 179.5,-190.87 179.5,-176.87 179.5,-176.87 179.5,-170.87 185.5,-164.87 191.5,-164.87 191.5,-164.87 236.5,-164.87 236.5,-164.87 242.5,-164.87 248.5,-170.87 248.5,-176.87 248.5,-176.87 248.5,-190.87 248.5,-190.87 248.5,-196.87 242.5,-202.87 236.5,-202.87"/>
<text text-anchor="middle" x="214" y="-187.67" font-family="Arial" font-size="14.00">QSkin_e</text>
<text text-anchor="middle" x="214" y="-172.67" font-family="Arial" font-size="14.00">[&#45;]</text>
</a>
</g>
</g>
<!-- QArt&#45;&gt;QSkin_e -->
<g id="edge11" class="edge">
<title>QArt&#45;&gt;QSkin_e</title>
<path fill="none" stroke="black" d="M374.19,-302.8C339.68,-291.73 296.04,-274.17 263,-248.87 249.73,-238.71 238.18,-224.1 229.63,-211.4"/>
<polygon fill="black" stroke="black" points="232.57,-209.5 224.2,-202.99 226.68,-213.29 232.57,-209.5"/>
</g>
<!-- QSkin_u -->
<g id="node10" class="node">
<title>QSkin_u</title>
<g id="a_node10"><a xlink:href="#species-QSkin_u" xlink:title="QSkin_u&#10;[&#45;]">
<path fill="gold" stroke="black" d="M914.5,-202.87C914.5,-202.87 869.5,-202.87 869.5,-202.87 863.5,-202.87 857.5,-196.87 857.5,-190.87 857.5,-190.87 857.5,-176.87 857.5,-176.87 857.5,-170.87 863.5,-164.87 869.5,-164.87 869.5,-164.87 914.5,-164.87 914.5,-164.87 920.5,-164.87 926.5,-170.87 926.5,-176.87 926.5,-176.87 926.5,-190.87 926.5,-190.87 926.5,-196.87 920.5,-202.87 914.5,-202.87"/>
<text text-anchor="middle" x="892" y="-187.67" font-family="Arial" font-size="14.00">QSkin_u</text>
<text text-anchor="middle" x="892" y="-172.67" font-family="Arial" font-size="14.00">[&#45;]</text>
</a>
</g>
</g>
<!-- QArt&#45;&gt;QSkin_u -->
<g id="edge12" class="edge">
<title>QArt&#45;&gt;QSkin_u</title>
<path fill="none" stroke="black" d="M487.61,-313.7C586.55,-305.57 786.03,-285.12 845,-248.87 859.31,-240.07 870.65,-225.14 878.6,-211.92"/>
<polygon fill="black" stroke="black" points="881.69,-213.56 883.56,-203.13 875.6,-210.12 881.69,-213.56"/>
</g>
<!-- QPoor -->
<g id="node13" class="node">
<title>QPoor</title>
<g id="a_node13"><a xlink:href="#species-QPoor" xlink:title="QPoor&#10;[PBPKO:00630]">
<path fill="gold" stroke="black" d="M820.5,-202.87C820.5,-202.87 731.5,-202.87 731.5,-202.87 725.5,-202.87 719.5,-196.87 719.5,-190.87 719.5,-190.87 719.5,-176.87 719.5,-176.87 719.5,-170.87 725.5,-164.87 731.5,-164.87 731.5,-164.87 820.5,-164.87 820.5,-164.87 826.5,-164.87 832.5,-170.87 832.5,-176.87 832.5,-176.87 832.5,-190.87 832.5,-190.87 832.5,-196.87 826.5,-202.87 820.5,-202.87"/>
<text text-anchor="middle" x="776" y="-187.67" font-family="Arial" font-size="14.00">QPoor</text>
<text text-anchor="middle" x="776" y="-172.67" font-family="Arial" font-size="14.00">[PBPKO:00630]</text>
</a>
</g>
</g>
<!-- QArt&#45;&gt;QPoor -->
<g id="edge13" class="edge">
<title>QArt&#45;&gt;QPoor</title>
<path fill="none" stroke="black" d="M487.66,-312.1C545.66,-304.32 636.97,-286.8 707,-248.87 724.89,-239.18 741.71,-223.76 754.26,-210.49"/>
<polygon fill="black" stroke="black" points="756.96,-212.73 761.13,-202.99 751.8,-208 756.96,-212.73"/>
</g>
<!-- QVen&#45;&gt;QArt -->
<g id="edge14" class="edge">
<title>QVen&#45;&gt;QArt</title>
<path fill="none" stroke="black" d="M443.49,-61.08C394.14,-75.06 325.46,-103.31 293,-156.87 271.8,-191.83 271.5,-214.09 293,-248.87 308.94,-274.65 337.75,-291.12 364.94,-301.48"/>
<polygon fill="black" stroke="black" points="363.87,-304.81 374.46,-304.89 366.23,-298.22 363.87,-304.81"/>
</g>
<!-- QSkin_e&#45;&gt;QVen -->
<g id="edge15" class="edge">
<title>QSkin_e&#45;&gt;QVen</title>
<path fill="none" stroke="black" d="M247.34,-164.84C252.55,-162.11 257.9,-159.38 263,-156.87 326.32,-125.68 400.53,-92.37 448.82,-71.13"/>
<polygon fill="black" stroke="black" points="450.37,-74.27 458.12,-67.04 447.55,-67.86 450.37,-74.27"/>
</g>
<!-- QSkin_sc_e -->
<g id="node11" class="node">
<title>QSkin_sc_e</title>
<g id="a_node11"><a xlink:href="#species-QSkin_sc_e" xlink:title="QSkin_sc_e&#10;[&#45;]">
<path fill="gold" stroke="black" d="M247,-66.87C247,-66.87 181,-66.87 181,-66.87 175,-66.87 169,-60.87 169,-54.87 169,-54.87 169,-40.87 169,-40.87 169,-34.87 175,-28.87 181,-28.87 181,-28.87 247,-28.87 247,-28.87 253,-28.87 259,-34.87 259,-40.87 259,-40.87 259,-54.87 259,-54.87 259,-60.87 253,-66.87 247,-66.87"/>
<text text-anchor="middle" x="214" y="-51.67" font-family="Arial" font-size="14.00">QSkin_sc_e</text>
<text text-anchor="middle" x="214" y="-36.67" font-family="Arial" font-size="14.00">[&#45;]</text>
</a>
</g>
</g>
<!-- QSkin_e&#45;&gt;QSkin_sc_e -->
<g id="edge16" class="edge">
<title>QSkin_e&#45;&gt;QSkin_sc_e</title>
<path fill="none" stroke="black" d="M218.79,-164.8C221.08,-142.32 221.36,-103.69 219.63,-77.24"/>
<polygon fill="black" stroke="black" points="223.11,-76.76 218.8,-67.08 216.13,-77.33 223.11,-76.76"/>
</g>
<!-- QSkin_u&#45;&gt;QVen -->
<g id="edge17" class="edge">
<title>QSkin_u&#45;&gt;QVen</title>
<path fill="none" stroke="black" d="M861.35,-164.76C855.99,-161.93 850.4,-159.18 845,-156.87 751.09,-116.68 637.15,-83.94 566.6,-65.42"/>
<polygon fill="black" stroke="black" points="567.08,-61.93 556.52,-62.8 565.31,-68.7 567.08,-61.93"/>
</g>
<!-- QSkin_sc_u -->
<g id="node12" class="node">
<title>QSkin_sc_u</title>
<g id="a_node12"><a xlink:href="#species-QSkin_sc_u" xlink:title="QSkin_sc_u&#10;[&#45;]">
<path fill="gold" stroke="black" d="M925,-337.87C925,-337.87 859,-337.87 859,-337.87 853,-337.87 847,-331.87 847,-325.87 847,-325.87 847,-311.87 847,-311.87 847,-305.87 853,-299.87 859,-299.87 859,-299.87 925,-299.87 925,-299.87 931,-299.87 937,-305.87 937,-311.87 937,-311.87 937,-325.87 937,-325.87 937,-331.87 931,-337.87 925,-337.87"/>
<text text-anchor="middle" x="892" y="-322.67" font-family="Arial" font-size="14.00">QSkin_sc_u</text>
<text text-anchor="middle" x="892" y="-307.67" font-family="Arial" font-size="14.00">[&#45;]</text>
</a>
</g>
</g>
<!-- QSkin_u&#45;&gt;QSkin_sc_u -->
<g id="edge18" class="edge">
<title>QSkin_u&#45;&gt;QSkin_sc_u</title>
<path fill="none" stroke="black" d="M896.84,-203.29C899.08,-225.65 899.35,-263.58 897.64,-289.63"/>
<polygon fill="black" stroke="black" points="894.15,-289.4 896.82,-299.65 901.12,-289.97 894.15,-289.4"/>
</g>
<!-- QSkin_sc_e&#45;&gt;QSkin_e -->
<g id="edge19" class="edge">
<title>QSkin_sc_e&#45;&gt;QSkin_e</title>
<path fill="none" stroke="black" d="M209.2,-67.08C206.91,-89.63 206.64,-128.27 208.38,-154.66"/>
<polygon fill="black" stroke="black" points="204.9,-155.12 209.21,-164.8 211.88,-154.54 204.9,-155.12"/>
</g>
<!-- QSkin_sc_u&#45;&gt;QSkin_u -->
<g id="edge20" class="edge">
<title>QSkin_sc_u&#45;&gt;QSkin_u</title>
<path fill="none" stroke="black" d="M887.18,-299.65C884.92,-277.39 884.64,-239.47 886.35,-213.35"/>
<polygon fill="black" stroke="black" points="889.84,-213.54 887.16,-203.29 882.86,-212.97 889.84,-213.54"/>
</g>
<!-- QPoor&#45;&gt;QVen -->
<g id="edge21" class="edge">
<title>QPoor&#45;&gt;QVen</title>
<path fill="none" stroke="black" d="M738.78,-164.8C688.98,-140.62 600.69,-97.76 546.55,-71.47"/>
<polygon fill="black" stroke="black" points="548.04,-68.3 537.51,-67.08 544.98,-74.6 548.04,-68.3"/>
</g>
<!-- QGut -->
<g id="node14" class="node">
<title>QGut</title>
<g id="a_node14"><a xlink:href="#species-QGut" xlink:title="QGut&#10;[PBPKO:00496]">
<path fill="gold" stroke="black" d="M117.5,-337.87C117.5,-337.87 28.5,-337.87 28.5,-337.87 22.5,-337.87 16.5,-331.87 16.5,-325.87 16.5,-325.87 16.5,-311.87 16.5,-311.87 16.5,-305.87 22.5,-299.87 28.5,-299.87 28.5,-299.87 117.5,-299.87 117.5,-299.87 123.5,-299.87 129.5,-305.87 129.5,-311.87 129.5,-311.87 129.5,-325.87 129.5,-325.87 129.5,-331.87 123.5,-337.87 117.5,-337.87"/>
<text text-anchor="middle" x="73" y="-322.67" font-family="Arial" font-size="14.00">QGut</text>
<text text-anchor="middle" x="73" y="-307.67" font-family="Arial" font-size="14.00">[PBPKO:00496]</text>
</a>
</g>
</g>
<!-- QGut&#45;&gt;QLiver -->
<g id="edge22" class="edge">
<title>QGut&#45;&gt;QLiver</title>
<path fill="none" stroke="black" d="M73,-299.65C73,-277.39 73,-239.47 73,-213.35"/>
<polygon fill="black" stroke="black" points="76.5,-213.29 73,-203.29 69.5,-213.29 76.5,-213.29"/>
</g>
</g>
</svg>
